<?xml version="1.0" encoding="UTF-8" standalone="no"?><!DOCTYPE svg PUBLIC "-//W3C//DTD SVG 1.1//EN" "http://www.w3.org/Graphics/SVG/1.1/DTD/svg11.dtd"><svg width="100%" height="100%" viewBox="0 0 612 564" version="1.1" xmlns="http://www.w3.org/2000/svg" xmlns:xlink="http://www.w3.org/1999/xlink" xml:space="preserve" xmlns:serif="http://www.serif.com/" style="fill-rule:evenodd;clip-rule:evenodd;stroke-miterlimit:10;"><path id="AA-logo-1-copy" serif:id="AA logo 1 copy" d="M552.629,188.187c-2.905,3.653 -6.066,6.676 -8.256,7.821c-25.298,17.614 -28.505,-14.961 -26.072,-23.898c4.369,-39.021 25.724,-80.866 36.5,-99.503c11.922,-20.332 28.282,-63.251 -1.303,-33.458c-61.745,74.548 -59.095,132.527 -59.095,132.527c-0,-0 -16.369,-22.096 -16.077,-34.327c11.358,-36.692 33.912,-95.067 100.897,-126.036c20.162,-7.256 26.966,-12.297 27.286,8.718c0.153,28.939 4.078,90.114 -53.88,168.156Zm-102.547,10.428c-0.064,0.059 13.721,-40.108 25.793,-58.402c10.001,46.857 42.487,81.98 104.563,147.043c-21.315,14.583 -143.361,154.532 -274.618,271.57c-131.256,-117.038 -253.302,-256.987 -274.617,-271.57c62.076,-65.063 94.562,-100.186 104.562,-147.043c12.073,18.294 25.858,58.461 25.794,58.402c0,0 6.09,-32.023 -60.398,-147.299c58.646,44.353 127.668,138.346 132.529,142.085c-0.418,-15.048 -7.376,-27.474 -9.994,-33.457c23.267,-1.202 45.19,25.201 45.19,25.201c0,0 15.743,-24.14 21.726,-25.636c6.357,10.844 15.208,49.1 15.208,49.1c0,0 8.852,-38.256 15.209,-49.1c5.983,1.496 21.726,25.636 21.726,25.636c-0,0 21.923,-26.403 45.19,-25.201c-2.618,5.983 -9.576,18.409 -9.994,33.457c4.861,-3.739 73.883,-97.732 132.529,-142.085c-66.488,115.276 -60.398,147.299 -60.398,147.299Zm-86.47,65.612c-0,-0 2.847,-20.738 -3.911,-22.16c0.712,28.451 -23.541,34.13 -27.809,31.284c-5.691,5.691 -26.072,5.649 -26.072,5.649c0,0 -20.38,0.042 -26.071,-5.649c-4.268,2.846 -28.521,-2.833 -27.809,-31.284c-6.758,1.422 -3.911,22.16 -3.911,22.16c0,-0 -37.521,-15.445 -49.97,-16.512c-11.382,9.247 -37.244,28.674 -50.404,40.41c1.422,1.422 1.895,1.975 2.607,3.042c3.557,-1.423 19.553,-9.125 19.553,-9.125l-5.214,10.863c-0,-0 6.635,20.063 9.125,28.243c7.825,5.335 34.24,24.053 49.535,32.588c4.98,-2.134 27.644,-9.712 42.583,-22.16c-1.422,3.557 -19.466,24.05 -34.761,40.41c7.114,-2.134 13.31,-4.661 16.512,-6.083c2.134,-1.067 4.82,1.855 3.041,4.345c-3.201,2.489 -25.637,16.511 -25.637,16.511c0,0 -4.66,14.689 -6.083,29.982c-16.362,-16.36 -50.112,-46.96 -82.124,-64.743c-16.362,-21.338 -54.562,-52.512 -36.066,-116.884c-8.892,23.117 -25.038,38.232 -36.065,53.88c8.537,9.602 34.087,35.343 40.845,63.439c16.006,7.824 79.619,21.193 113.41,71.694c-2.49,19.916 31.559,59.682 38.673,72.129c6.046,-1.066 13.823,-1.15 17.38,11.298c3.202,1.067 22.315,3.516 30.851,1.738c8.537,1.778 27.65,-0.671 30.852,-1.738c3.556,-12.448 11.334,-12.364 17.38,-11.298c7.114,-12.447 41.163,-52.213 38.673,-72.129c33.791,-50.501 97.404,-63.87 113.41,-71.694c6.758,-28.096 32.308,-53.837 40.845,-63.439c-11.027,-15.648 -27.173,-30.763 -36.065,-53.88c18.496,64.372 -19.704,95.546 -36.066,116.884c-32.012,17.783 -65.762,48.383 -82.124,64.743c-1.423,-15.293 -6.084,-29.982 -6.084,-29.982c0,0 -22.435,-14.022 -25.636,-16.511c-1.779,-2.49 0.907,-5.412 3.041,-4.345c3.201,1.422 9.398,3.949 16.512,6.083c-15.295,-16.36 -33.339,-36.853 -34.762,-40.41c14.94,12.448 37.604,20.026 42.584,22.16c15.294,-8.535 41.71,-27.253 49.535,-32.588c2.49,-8.18 9.125,-28.243 9.125,-28.243l-5.214,-10.863c-0,-0 15.996,7.702 19.553,9.125c0.712,-1.067 1.185,-1.62 2.607,-3.042c-13.16,-11.736 -39.022,-31.163 -50.404,-40.41c-12.45,1.067 -49.97,16.512 -49.97,16.512Zm-19.988,172.067c-3.629,3.175 -9.595,5.383 -13.905,6.517c-4.31,1.134 -6.881,8.557 1.738,11.732c18.6,0.227 34.327,-18.684 34.327,-18.684c0,0 -10.379,22.292 -32.154,24.333c-7.939,0.227 -14.604,-6.439 -13.47,-13.47c3.175,-7.258 10.442,-8.046 20.422,-13.035c3.403,-2.042 4.518,-6.043 0.435,-12.167c-1.361,-0.907 0.358,-4.044 2.172,-0.869c1.588,2.949 3.23,5.969 3.911,8.691c0.227,2.041 -0.754,4.23 -3.476,6.952Zm-65.613,23.898c-21.776,-2.041 -32.155,-24.333 -32.155,-24.333c0,0 15.728,18.911 34.328,18.684c8.619,-3.175 6.048,-10.598 1.738,-11.732c-4.31,-1.134 -10.276,-3.342 -13.905,-6.517c-2.722,-2.722 -3.703,-4.911 -3.476,-6.952c0.68,-2.722 2.323,-5.742 3.911,-8.691c1.814,-3.175 3.533,-0.038 2.172,0.869c-4.083,6.124 -2.968,10.125 0.435,12.167c9.98,4.989 17.247,5.777 20.422,13.035c1.134,7.031 -5.531,13.697 -13.47,13.47Zm44.327,-351.086c-5.964,2.857 -14.506,10.474 -16.106,11.924l-0.123,0.242c0,0 -0.028,-0.026 -0.071,-0.066c-0.043,0.04 -0.072,0.066 -0.072,0.066l-0.122,-0.242c-1.601,-1.45 -10.143,-9.067 -16.107,-11.924c-9.768,4.265 -25.452,9.314 -34.119,15.642c-5.916,-4.677 -25.177,-7.293 -30.13,-8.256c13.154,-7.536 58.65,-31.266 80.356,-42.875c0.042,-0.047 0.08,-0.093 0.122,-0.141c0.024,0.012 0.048,0.025 0.072,0.038c0.023,-0.013 0.048,-0.026 0.071,-0.038c0.042,0.048 0.08,0.094 0.122,0.141c21.706,11.609 67.202,35.339 80.357,42.875c-4.953,0.963 -24.214,3.579 -30.13,8.256c-8.668,-6.328 -24.352,-11.377 -34.12,-15.642Zm-205.1,62.57c0,-0 2.65,-57.979 -59.095,-132.527c-29.585,-29.793 -13.225,13.126 -1.303,33.458c10.776,18.637 32.131,60.482 36.499,99.503c2.434,8.937 -0.773,41.512 -26.071,23.898c-2.19,-1.145 -5.351,-4.168 -8.256,-7.821c-57.958,-78.042 -54.033,-139.217 -53.881,-168.156c0.321,-21.015 7.125,-15.974 27.287,-8.718c66.985,30.969 89.539,89.344 100.897,126.036c0.292,12.231 -16.077,34.327 -16.077,34.327Z" style="fill:#fff;stroke:none;"/></svg>