<svg width="100" height="100" viewBox="0 0 100 100" fill="none" xmlns="http://www.w3.org/2000/svg">
<rect x="0.5" y="0.5" width="99" height="99" stroke="white"/>
<path fill-rule="evenodd" clip-rule="evenodd" d="M71.8644 41.6832C71.6068 42.0071 71.3266 42.2751 71.1324 42.3766C68.8897 43.9381 68.6054 41.0503 68.8211 40.258C69.2084 36.7987 71.1016 33.089 72.0569 31.4368C73.1138 29.6343 74.5642 25.8294 71.9414 28.4707C66.4676 35.0795 66.7025 40.2195 66.7025 40.2195C66.7025 40.2195 65.2513 38.2606 65.2772 37.1763C66.2841 33.9235 68.2836 28.7484 74.222 26.0029C76.0094 25.3597 76.6126 24.9128 76.641 26.7758C76.6545 29.3413 77.0025 34.7646 71.8644 41.6832ZM62.7733 42.6077C62.7676 42.6129 63.9897 39.052 65.0599 37.4302C65.9465 41.5842 68.8265 44.698 74.3297 50.466C72.4401 51.7588 61.6204 64.1656 49.9841 74.5413C38.348 64.1656 27.5283 51.7588 25.6387 50.466C31.1418 44.698 34.0218 41.5842 34.9083 37.4302C35.9786 39.052 37.2007 42.6129 37.195 42.6077C37.195 42.6077 37.7349 39.7688 31.8406 29.5493C37.0397 33.4813 43.1587 41.814 43.5896 42.1455C43.5526 40.8114 42.9357 39.7098 42.7036 39.1794C44.7663 39.0729 46.7098 41.4136 46.7098 41.4136C46.7098 41.4136 48.1055 39.2735 48.6359 39.1409C49.1995 40.1022 49.9841 43.4937 49.9841 43.4937C49.9841 43.4937 50.7689 40.1022 51.3324 39.1409C51.8629 39.2735 53.2585 41.4136 53.2585 41.4136C53.2585 41.4136 55.202 39.0729 57.2647 39.1794C57.0326 39.7098 56.4158 40.8114 56.3787 42.1455C56.8097 41.814 62.9286 33.4813 68.1278 29.5493C62.2334 39.7688 62.7733 42.6077 62.7733 42.6077ZM55.1075 48.4244C55.1075 48.4244 55.3599 46.5859 54.7608 46.4598C54.8239 48.9821 52.6738 49.4856 52.2955 49.2332C51.791 49.7378 49.9841 49.734 49.9841 49.734C49.9841 49.734 48.1774 49.7378 47.6729 49.2332C47.2945 49.4856 45.1444 48.9821 45.2075 46.4598C44.6084 46.5859 44.8608 48.4244 44.8608 48.4244C44.8608 48.4244 41.5345 47.0551 40.4309 46.9605C39.4218 47.7803 37.1291 49.5026 35.9624 50.543C36.0885 50.6691 36.1304 50.7181 36.1935 50.8127C36.5089 50.6865 37.927 50.0037 37.927 50.0037L37.4647 50.9668C37.4647 50.9668 38.0529 52.7454 38.2737 53.4706C38.9674 53.9435 41.3091 55.6029 42.6651 56.3596C43.1066 56.1704 45.1158 55.4986 46.4402 54.395C46.3141 54.7104 44.7145 56.5271 43.3585 57.9775C43.9892 57.7883 44.5385 57.5643 44.8223 57.4382C45.0115 57.3436 45.2496 57.6027 45.0919 57.8234C44.8082 58.0441 42.8191 59.2871 42.8191 59.2871C42.8191 59.2871 42.406 60.5894 42.2799 61.9451C40.8293 60.4948 37.8373 57.782 34.9994 56.2055C33.5488 54.3138 30.1623 51.5502 31.802 45.8434C31.0137 47.8928 29.5824 49.2328 28.6048 50.62C29.3616 51.4713 31.6267 53.7533 32.2258 56.2441C33.6448 56.9377 39.2842 58.1229 42.2799 62.5999C42.0591 64.3655 45.0777 67.8909 45.7083 68.9943C46.2443 68.8998 46.9338 68.8924 47.2491 69.9959C47.533 70.0905 49.2274 70.3076 49.9841 70.15C50.741 70.3076 52.4354 70.0905 52.7192 69.9959C53.0345 68.8924 53.724 68.8998 54.26 68.9943C54.8907 67.8909 57.9092 64.3655 57.6885 62.5999C60.6841 58.1229 66.3236 56.9377 67.7426 56.2441C68.3417 53.7533 70.6067 51.4713 71.3636 50.62C70.386 49.2328 68.9546 47.8928 68.1663 45.8434C69.806 51.5502 66.4195 54.3138 64.969 56.2055C62.131 57.782 59.139 60.4948 57.6885 61.9451C57.5623 60.5894 57.1491 59.2871 57.1491 59.2871C57.1491 59.2871 55.1602 58.0441 54.8764 57.8234C54.7187 57.6027 54.9568 57.3436 55.146 57.4382C55.4298 57.5643 55.9792 57.7883 56.6098 57.9775C55.2539 56.5271 53.6543 54.7104 53.5281 54.395C54.8526 55.4986 56.8618 56.1704 57.3033 56.3596C58.6591 55.6029 61.001 53.9435 61.6947 53.4706C61.9154 52.7454 62.5036 50.9668 62.5036 50.9668L62.0414 50.0037C62.0414 50.0037 63.4595 50.6865 63.7748 50.8127C63.8379 50.7181 63.8799 50.6691 64.0059 50.543C62.8393 49.5026 60.5465 47.7803 59.5375 46.9605C58.4338 47.0551 55.1075 48.4244 55.1075 48.4244ZM53.3356 63.6785C53.0138 63.96 52.4849 64.1558 52.1028 64.2563C51.7207 64.3568 51.4928 65.0149 52.2569 65.2964C53.9059 65.3165 55.3001 63.64 55.3001 63.64C55.3001 63.64 54.38 65.6162 52.4496 65.7972C51.7457 65.8173 51.1549 65.2263 51.2554 64.603C51.5369 63.9596 52.1811 63.8897 53.0659 63.4474C53.3676 63.2664 53.4664 62.9117 53.1044 62.3688C52.9838 62.2884 53.1362 62.0103 53.297 62.2918C53.4378 62.5532 53.5833 62.8209 53.6437 63.0622C53.6638 63.2432 53.5769 63.4372 53.3356 63.6785ZM47.5188 65.7972C45.5883 65.6162 44.6682 63.64 44.6682 63.64C44.6682 63.64 46.0625 65.3165 47.7114 65.2964C48.4755 65.0149 48.2476 64.3568 47.8655 64.2563C47.4834 64.1558 46.9545 63.96 46.6328 63.6785C46.3915 63.4372 46.3045 63.2432 46.3246 63.0622C46.3849 62.8209 46.5306 62.5532 46.6714 62.2918C46.8322 62.0103 46.9846 62.2884 46.8639 62.3688C46.502 62.9117 46.6008 63.2664 46.9025 63.4474C47.7872 63.8897 48.4315 63.9596 48.7129 64.603C48.8135 65.2263 48.2226 65.8173 47.5188 65.7972ZM51.4485 34.6725C50.9198 34.9258 50.1625 35.6011 50.0207 35.7296L50.0098 35.7511C50.0098 35.7511 50.0073 35.7488 50.0035 35.7452C49.9996 35.7488 49.9971 35.7511 49.9971 35.7511L49.9863 35.7296C49.8443 35.6011 49.0871 34.9258 48.5583 34.6725C47.6924 35.0506 46.302 35.4982 45.5336 36.0592C45.0091 35.6446 43.3016 35.4127 42.8625 35.3273C44.0286 34.6592 48.062 32.5555 49.9863 31.5263C49.99 31.5222 49.9934 31.5181 49.9971 31.5138C49.9992 31.5149 50.0013 31.516 50.0035 31.5172C50.0055 31.516 50.0077 31.5149 50.0098 31.5138C50.0135 31.5181 50.0168 31.5222 50.0206 31.5263C51.9449 32.5555 55.9782 34.6592 57.1444 35.3273C56.7053 35.4127 54.9978 35.6446 54.4733 36.0592C53.7049 35.4982 52.3145 35.0506 51.4485 34.6725ZM33.2659 40.2195C33.2659 40.2195 33.5008 35.0795 28.027 28.4707C25.4042 25.8294 26.8545 29.6343 27.9114 31.4368C28.8668 33.089 30.7599 36.7987 31.1472 40.258C31.3629 41.0503 31.0786 43.9381 28.8359 42.3766C28.6418 42.2751 28.3615 42.0071 28.104 41.6832C22.9659 34.7646 23.3138 29.3413 23.3273 26.7758C23.3558 24.9128 23.959 25.3597 25.7464 26.0029C31.6848 28.7484 33.6842 33.9235 34.6911 37.1763C34.717 38.2606 33.2659 40.2195 33.2659 40.2195Z" fill="white"/>
</svg>
